<?xml version="1.0" encoding="UTF-8"?>
<svg xmlns="http://www.w3.org/2000/svg" xmlns:xlink="http://www.w3.org/1999/xlink" width="48px" height="48px" viewBox="0 0 48 48" version="1.1">
<g id="surface1">
<path style=" stroke:none;fill-rule:nonzero;fill:rgb(53.333336%,57.254905%,74.901962%);fill-opacity:1;" d="M 45 24 C 45 12.402344 35.597656 3 24 3 C 12.402344 3 3 12.402344 3 24 C 3 35.597656 12.402344 45 24 45 C 35.597656 45 45 35.597656 45 24 Z M 45 24 "/>
<path style=" stroke:none;fill-rule:nonzero;fill:rgb(100%,100%,100%);fill-opacity:1;" d="M 21.660156 15 L 24.179688 15 L 23.464844 18.785156 L 25.730469 18.785156 C 26.972656 18.8125 27.898438 19.089844 28.507812 19.617188 C 29.128906 20.148438 29.308594 21.152344 29.054688 22.632812 L 27.832031 29.234375 L 25.273438 29.234375 L 26.441406 22.929688 C 26.566406 22.269531 26.527344 21.800781 26.332031 21.523438 C 26.140625 21.246094 25.71875 21.105469 25.074219 21.105469 L 23.046875 21.085938 L 21.550781 29.234375 L 19.027344 29.234375 Z M 21.660156 15 "/>
<path style=" stroke:none;fill-rule:evenodd;fill:rgb(100%,100%,100%);fill-opacity:1;" d="M 10.113281 18.785156 L 15.003906 18.785156 C 16.441406 18.800781 17.484375 19.25 18.128906 20.132812 C 18.773438 21.019531 18.988281 22.230469 18.765625 23.761719 C 18.683594 24.460938 18.492188 25.148438 18.199219 25.824219 C 17.921875 26.496094 17.53125 27.105469 17.03125 27.648438 C 16.421875 28.335938 15.773438 28.769531 15.078125 28.957031 C 14.382812 29.140625 13.667969 29.234375 12.921875 29.234375 L 10.730469 29.234375 L 10.039062 33 L 7.5 33 Z M 11.152344 26.992188 L 12.246094 21.066406 L 12.613281 21.066406 C 12.746094 21.066406 12.886719 21.058594 13.03125 21.046875 C 14.007812 21.03125 14.816406 21.132812 15.460938 21.34375 C 16.121094 21.554688 16.339844 22.355469 16.121094 23.742188 C 15.851562 25.394531 15.328125 26.359375 14.550781 26.636719 C 13.769531 26.902344 12.796875 27.027344 11.628906 27.011719 L 11.371094 27.011719 C 11.296875 27.011719 11.226562 27.007812 11.152344 26.992188 Z M 11.152344 26.992188 "/>
<path style=" stroke:none;fill-rule:evenodd;fill:rgb(100%,100%,100%);fill-opacity:1;" d="M 36.65625 18.785156 L 31.761719 18.785156 L 29.148438 33 L 31.6875 33 L 32.382812 29.234375 L 34.574219 29.234375 C 35.316406 29.234375 36.035156 29.140625 36.726562 28.957031 C 37.421875 28.769531 38.074219 28.335938 38.683594 27.648438 C 39.179688 27.105469 39.570312 26.496094 39.851562 25.824219 C 40.144531 25.148438 40.332031 24.460938 40.417969 23.761719 C 40.636719 22.230469 40.421875 21.019531 39.777344 20.132812 C 39.132812 19.25 38.089844 18.800781 36.65625 18.785156 Z M 33.894531 21.066406 L 32.800781 26.992188 C 32.875 27.007812 32.949219 27.011719 33.019531 27.011719 L 33.277344 27.011719 C 34.445312 27.027344 35.417969 26.902344 36.199219 26.636719 C 36.976562 26.359375 37.5 25.394531 37.769531 23.742188 C 37.988281 22.355469 37.769531 21.554688 37.113281 21.34375 C 36.464844 21.132812 35.65625 21.03125 34.683594 21.046875 C 34.535156 21.058594 34.398438 21.066406 34.261719 21.066406 Z M 33.894531 21.066406 "/>
</g>
</svg>
